<?xml version="1.0" encoding="UTF-8" standalone="no"?>
<svg
    xmlns:inkscape="http://www.inkscape.org/namespaces/inkscape"
    xmlns:sodipodi="http://sodipodi.sourceforge.net/DTD/sodipodi-0.dtd"
    xmlns:rdf="http://www.w3.org/1999/02/22-rdf-syntax-ns#"
    xmlns:cc="http://creativecommons.org/ns#"
    xmlns:dc="http://purl.org/dc/elements/1.1/"
    id="Layer_1"
    data-name="Layer 1"
    viewBox="0 0 16 16"
    version="1.1"
    sodipodi:docname="device.svg"
    inkscape:version="1.2.2 (b0a8486541, 2022-12-01)"
    xmlns="http://www.w3.org/2000/svg">
  <metadata
     id="metadata23">
    <rdf:RDF>
      <cc:Work
         rdf:about="">
        <dc:format>image/svg+xml</dc:format>
        <dc:type
           rdf:resource="http://purl.org/dc/dcmitype/StillImage" />
        <dc:title>xml</dc:title>
      </cc:Work>
    </rdf:RDF>
  </metadata>
  <defs
     id="defs21" />
  <sodipodi:namedview
     pagecolor="#ffffff"
     bordercolor="#666666"
     borderopacity="1"
     objecttolerance="10"
     gridtolerance="10"
     guidetolerance="10"
     inkscape:pageopacity="0"
     inkscape:pageshadow="2"
     inkscape:window-width="2560"
     inkscape:window-height="1411"
     id="namedview19"
     showgrid="true"
     inkscape:zoom="64"
     inkscape:cx="4.6171875"
     inkscape:cy="5.703125"
     inkscape:window-x="2560"
     inkscape:window-y="0"
     inkscape:window-maximized="1"
     inkscape:current-layer="g3370"
     inkscape:showpageshadow="2"
     inkscape:pagecheckerboard="0"
     inkscape:deskcolor="#d1d1d1">
    <inkscape:grid
       type="xygrid"
       id="grid932" />
  </sodipodi:namedview>
  <title
     id="title2">xml</title>
  <g
     id="g16">
    <text
       xml:space="preserve"
       style="font-style:normal;font-weight:normal;font-size:5.33333px;line-height:1.25;font-family:sans-serif;letter-spacing:0px;word-spacing:0px;fill:#000000;fill-opacity:1;stroke:none"
       x="3.3220339"
       y="10.40678"
       id="text944" />
    <text
       xml:space="preserve"
       style="font-style:normal;font-weight:normal;font-size:5.33333px;line-height:1.25;font-family:sans-serif;letter-spacing:0px;word-spacing:0px;fill:#000000;fill-opacity:1;stroke:none"
       x="8"
       y="11.779661"
       id="text1039" />
    <g
       id="g304"
       transform="translate(0.02453613,-8.152166e-4)">
      <g
         id="g13511"
         style="fill:#9aa7b0;fill-opacity:0.80000001">
        <rect
           style="fill:#9aa7b0;fill-opacity:0.80000001;stroke-width:1.08268"
           id="rect926"
           width="3"
           height="1.0338984"
           x="1"
           y="9"
           ry="0" />
        <rect
           style="fill:#9aa7b0;fill-opacity:0.80000001;stroke-width:0.843024"
           id="rect928"
           width="1"
           height="3.9584985"
           x="1"
           y="9.9982576" />
        <rect
           style="fill:#9aa7b0;fill-opacity:0.80000001;stroke-width:1.07208"
           id="rect930"
           width="3"
           height="1.0508474"
           x="1"
           y="13.949153" />
        <rect
           style="fill:#9aa7b0;fill-opacity:0.80000001"
           id="rect934"
           width="3"
           height="1"
           x="12"
           y="9" />
        <rect
           style="fill:#9aa7b0;fill-opacity:0.80000001;stroke-width:1.01246"
           id="rect936"
           width="1.0220904"
           height="4.011735"
           x="13.978584"
           y="9.9983139" />
        <rect
           style="fill:#9aa7b0;fill-opacity:0.80000001"
           id="rect938"
           width="3"
           height="1"
           x="12"
           y="14" />
      </g>
      <text
         xml:space="preserve"
         style="font-style:normal;font-weight:normal;font-size:5.33333px;line-height:1.25;font-family:sans-serif;letter-spacing:0px;word-spacing:0px;fill:#62b543;fill-opacity:0.80000001;stroke:none"
         x="3.8644071"
         y="14.542375"
         id="text1035"><tspan
           sodipodi:role="line"
           id="tspan1033"
           x="3.8644071"
           y="14.542375"
           style="font-style:normal;font-variant:normal;font-weight:bold;font-stretch:normal;font-size:6.66667px;font-family:monospace;-inkscape-font-specification:'monospace Bold';fill:#62b543;fill-opacity:0.80000001">OK</tspan></text>
      <g
         id="g3370"
         style="fill:#9aa7b0;fill-opacity:0.80000001;stroke-width:5.00000029;stroke-dasharray:none"
         transform="translate(-0.05624749,0.01142137)">
        <g
           id="g34505"
           transform="matrix(0.87671937,0,0,0.87492582,1.1292419,0.3404281)">
          <path
             fill="#9aa7b0"
             d="m 12.342469,4.7708766 -10e-5,0.0024 c -1.404776,-0.751234 -3.0910644,-0.755131 -4.4992994,-0.0104 v -0.0051 c 2e-4,-0.8767 1.2713,-1.8584 2.0489,-2.079 1.9621994,-0.5565 2.4504994,1.35465 2.4504994,2.0921 z m -6.5480994,2.093 c 0.7777,-0.2204 2.0487,-1.2022 2.0489,-2.0789 v -0.0052 c -1.408234,0.744697 -3.09449,0.740837 -4.4993,-0.0103 v 0.0023 c 0,0.7375 0.4883,2.64865 2.4504,2.0921 z"
             id="path32466"
             style="fill-rule:evenodd" />
          <path
             fill="#9aa7b0"
             d="m 5.5930696,1.1489766 0.0022,-0.0011 c -0.00169,0.7435072 0.2071236,1.4723052 0.6023,2.1021 0.402966,0.643141 0.967726,1.169212 1.6378,1.5256 l -0.0048,0.0025 c -1.027574,0.288252 -2.1311187,0.06092 -2.9611,-0.61 -1.4995,-1.30165 0.0367,-2.6503 0.7236,-3.0191 z m 5.2238004,4.2256 C 9.9869566,4.7036036 8.8834446,4.4761926 7.8558696,4.7643766 l -0.0048,0.0026 c 0.670035,0.356368 1.234736,0.882447 1.6376,1.5256 0.395193,0.629792 0.6040444,1.358586 0.6024004,2.1021 l 0.0022,-0.0011 c 0.6869,-0.3688 2.223099,-1.7175 0.7236,-3.019 z"
             id="path32468"
             style="fill-rule:evenodd" />
          <path
             fill="#9aa7b0"
             d="m 5.5938696,8.3940766 -0.0021,-0.0013 c 0.6784122,-0.3565 1.250198,-0.886465 1.6571,-1.5359 0.391275,-0.623901 0.599895,-1.34496 0.6022,-2.0814 l 0.0048,0.0026 c 0.774685,0.660926 1.124835,1.693257 0.9121,2.6891 -0.4626,1.858 -2.4871,1.2956 -3.1741,0.9269 z m 1.3243,-6.3186 c -0.212648,0.9958577 0.137531,2.028161 0.9122,2.6891 l 0.0049,0.0026 c 0.0022,-0.736467 0.210875,-1.4575603 0.6023,-2.0814 0.406836,-0.6494788 0.978594,-1.1794842 1.6570004,-1.536 l -0.0023,-0.0012 C 9.4053696,0.77987663 7.3808696,0.21747663 6.9181696,2.0754766 Z"
             id="path32470"
             style="fill-rule:evenodd" />
        </g>
      </g>
    </g>
  </g>
</svg>
